<svg xmlns="http://www.w3.org/2000/svg" viewBox="0 0 140 87.587">
  <defs>
    <style>
      .cls-1 {
        fill: #ed1c24;
      }

      .cls-2 {
        fill: #8dc63f;
      }

      .cls-3 {
        fill: #fbb040;
      }

      .cls-4 {
        fill: #f9ed32;
      }

      .cls-5 {
        fill: #603913;
      }

      .cls-6 {
        fill: #a0c1d2;
      }

      .cls-7 {
        fill: #fff;
      }

      .cls-8 {
        fill: #91bcd1;
      }

      .cls-9 {
        fill: #8b5e3c;
      }

      .cls-10 {
        fill: #92278f;
      }

      .cls-11 {
        fill: #f7941d;
      }

      .cls-12 {
        font-size: 16px;
        font-family: Caveat-Bold, Caveat;
        font-weight: 700;
      }
    </style>
  </defs>
  <g id="logosvg" transform="translate(0.202 0.128)">
    <g id="healthyfoods" transform="translate(-0.086 -0.128)">
      <g id="tomato" transform="translate(73.409 8.503)">
        <path id="Path_1" data-name="Path 1" d="M175.767,36.71a3.228,3.228,0,0,0,.847-.635c.423-.423-.953-.688-1.111-.741a2.647,2.647,0,0,0-2.011.265,2.908,2.908,0,0,1-.476.37c-.582.37.212.688.529.794a3.55,3.55,0,0,0,2.223-.053Z" transform="translate(-154.771 -25.035)"/>
        <g id="Group_1" data-name="Group 1" transform="translate(0 6.281)">
          <path id="Path_2" data-name="Path 2" class="cls-1" d="M147,31.316a14.621,14.621,0,0,0-5.5,11.908A19.088,19.088,0,0,0,146.577,55.4a11.219,11.219,0,0,0,7.039,4.075,14.131,14.131,0,0,0,6.351-1.323,32.287,32.287,0,0,0,9.738-5.081c2.8-2.329,4.975-5.822,4.922-9.42-.053-3.175-1.746-5.927-3.81-8.2-2.7-2.964-4.657-3.6-8.521-3.7C156.368,31.633,152.875,26.87,147,31.316Z" transform="translate(-140.028 -28.568)"/>
          <path id="Path_3" data-name="Path 3" d="M144.322,29.973c-8.15,7.25-7.039,19.529,1.006,26.567,6.88,6.033,17.253,1.905,23.71-3.07,7.621-5.874,7.515-16.565-1.058-21.7-3.81-2.276-9.526-2.382-13.707-3.493a11.155,11.155,0,0,0-9.632,1.535c-1.641,1.058,1.164,2.17,2.223,1.482,2.911-1.852,13.125-.106,16.935.953,9.262,2.593,9.526,14.183,3.228,19.529a28.145,28.145,0,0,1-7.727,4.234c-6.51,2.593-12.649-.265-15.612-6.3a15.283,15.283,0,0,1,3.493-18.629C148.291,30.026,145.222,29.179,144.322,29.973Z" transform="translate(-138.726 -27.807)"/>
        </g>
        <g id="Group_2" data-name="Group 2" transform="translate(10.319 1.143)">
          <path id="Path_4" data-name="Path 4" class="cls-2" d="M178.533,25.969c-1.905,0-3.81.053-5.769-.053a13.819,13.819,0,0,0,3.387-3.175h0l.106-.106c.476-.529-1.164-.688-1.482-.423-1.8,1.376-3.387,3.281-5.769,3.281a2.424,2.424,0,0,1-.688-.423c-.476-1.588-1.8-4.975-2.276-6.562-.159-.476-1.006.794-1.006,1.376a15.828,15.828,0,0,0,.794,4.128c-1.641-1.058-3.281-2.117-4.869-3.334-.476-.37-1.958,0-1.217.582,1.588,1.217,3.228,2.329,4.922,3.387.423.265.847.529,1.323.847a12.442,12.442,0,0,1-6.033,1.164,1.047,1.047,0,0,0-.741.265c-.423.159-.688.582-.053.794a.185.185,0,0,1,.106.053c.106.212.265.476.423.529.318.106.688,0,1.006.106a1.106,1.106,0,0,0,.688-.106,8.882,8.882,0,0,0,3.175-.476c.106,0,.265-.053.37-.053,1.164-.212,1.535-1.217,2.487-1.217-1.006,1.006-1.535,2.752-2.593,3.969-.582.688.953.9,1.376.529.053-.053.159-.106.212-.212.212-.053.423-.106.476-.212.476-.635,1.006-1.217,1.535-1.8a4.54,4.54,0,0,1,1.058-.688c.212.37.37.688.582,1.006a8.8,8.8,0,0,0,1.852,2.7.862.862,0,0,0,.318.159l.265.265c.265.212,1.905.37,1.535-.265-.9-1.482-1.746-2.964-2.593-4.5,2.382-.476,5.081-.159,7.515-.635C179.7,26.71,179.062,25.969,178.533,25.969Z" transform="translate(-158.488 -18.242)"/>
          <path id="Path_5" data-name="Path 5" d="M178.27,25.562c-.265,0-4.181.265-4.287,0-.318-.794.37-.847,1.058-1.535.529-.582,1.27-1.058,1.323-1.852,0-.106-.053-.159-.159-.212-1.217-.476-1.641-.159-2.646.529-1.8,1.217-4.022,3.6-5.663.688a29.52,29.52,0,0,1-1.746-4.869.435.435,0,0,0-.318-.212c-2.7.053-.159,4.446-.847,4.869-1.482.9-3.7-4.075-5.874-2.382-.053.053-.159.159-.106.212.688,1.376,5.451,3.07,5.345,4.34-.159,1.535-4.551.529-6.086,1.852a.161.161,0,0,0,0,.212c1.376,1.535,2.487,1.27,4.6.953A33.545,33.545,0,0,0,166.1,27.15c.265.212-1.694,2.434-1.852,3.493,0,.106.106.159.159.212,2.382,1.376,3.122-2.54,5.186-1.852.9.265,1.323,2.7,2.54,3.175a2.641,2.641,0,0,0,1.8.106c.106,0,.159-.106.159-.212.212-1.852-3.493-3.7-.953-4.816,1.852-.847,4.446.529,6.192-.794.106-.053.159-.159.053-.265-.318-.582-.212-.423-.9-.688-.318-.106-.741.212-.37.37.476.159-3.387.794-3.281.794-1.27.053-2.487.159-3.7.318-.159,0-.318.159-.212.318.37.635,2.8,3.969,1.323,4.234-.847.159-2.382-3.334-2.646-3.81a.4.4,0,0,0-.529-.053c-.582.37-2.646,2.8-3.07,2.752-1.535-.212,1.746-4.34,1.482-4.022.212-.265-.212-.423-.423-.37-.953.37-7.25,3.387-7.78,1.323-.053-.212,5.98-1.641,6.668-1.905.212-.106.212-.265,0-.423-1.27-.794-2.487-1.588-3.758-2.382-1.376-.423-1.641-.794-.847-1.006.847-.37,3.228,1.8,4.022,2.329.159.106.635.106.582-.212-.265-.953-1.482-6.3.159-3.758a15.629,15.629,0,0,1,1.111,3.122c.37,1.164.318,1.905,1.482,2.329,1.111.37,2.54-.794,3.387-1.217.529-.265,3.122-2.752,3.546-1.905.212.476-3.44,3.228-3.334,3.122-.212.159,0,.423.212.423,1.905.053,3.81.053,5.769.053C178.64,26.038,178.693,25.562,178.27,25.562Z" transform="translate(-158.225 -18.1)"/>
        </g>
        <path id="Path_6" data-name="Path 6" d="M176.139,23.539a34.178,34.178,0,0,1,2.329-3.122c.529-.741,2.117-2.858,1.588-3.969.318.265.635.582.953.847-1.006.847-.794,2.54-1.27,3.7a16.833,16.833,0,0,1-3.07,4.393c-.212.212-1.27-.953-1.006-1.323,1.8-2.117,3.546-4.234,3.546-7.145a.194.194,0,0,1,.053-.159c.423-.159.423-.529.741-.794.265-.212.847.688.953.847,1.323,2.7-2.54,6.033-3.81,8.044-.159.212-1.27-.9-1.006-1.323Z" transform="translate(-156.095 -15.939)"/>
      </g>
      <g id="Peach" transform="translate(18.091 7.671)">
        <g id="Group_4" data-name="Group 4">
          <path id="Path_7" data-name="Path 7" class="cls-2" d="M53.947,26.292a2.476,2.476,0,0,0,.423-.741c1.058-2.8-2.434-6.139-4.446-7.3a19.178,19.178,0,0,0-8.415-2.064c-1.694-.106-3.6,0-4.71,1.27a25.543,25.543,0,0,0,9.367,8.256c2.329,1.217,5.292,2.7,6.721-.053,1.746-3.281,1.217-6.51,4.393-9.42.635-.635,1.746-.265,2.646-.476.847-.212,1.535-.9,2.064-.159a15.948,15.948,0,0,0-8.574,9.9" transform="translate(-35.424 -14.79)"/>
          <g id="Group_3" data-name="Group 3">
            <path id="Path_8" data-name="Path 8" d="M53.993,25.657c2.434-4.393-3.546-8.415-7.092-9.473-3.81-1.164-9.367-1.958-12.6,1.006-.106.053-.106.159-.106.265a27.282,27.282,0,0,0,8.044,7.515c2.117,1.27,4.71,2.8,7.3,2.329,2.858-.529,3.758-2.646,4.551-5.239.529-1.746.953-4.393,2.487-5.61.582-.476,1.217-.37,1.852-.582a3.423,3.423,0,0,0,.688-.212c.688-.318.794-.318.37-.053l.476-.635a17.063,17.063,0,0,0-9.1,10.32c-.159.529,2.329.265,2.593-.423a15.571,15.571,0,0,1,8.044-9.473c.159-.053.794-.423.476-.635-1.058-.794-1.958-.159-3.122.053-1.376.265-2.646.106-3.863,1.006-1.694,1.323-2.54,3.546-3.122,5.5a14.525,14.525,0,0,1-1.111,3.334c-1.111,1.905-2.329,1.27-3.969.423a26.808,26.808,0,0,1-6.086-4.128c-.794-.741-2.17-1.694-2.646-2.752-.423-.318-.423-.688-.053-1.164q-.079-1.429,1.429-.794a9.744,9.744,0,0,1,1.746.159c3.81.423,13.39,4.022,10.267,9.632-.265.423,2.17.265,2.54-.37Z" transform="translate(-34.2 -14.366)"/>
          </g>
        </g>
        <g id="Group_7" data-name="Group 7" transform="translate(4.283 6.364)">
          <g id="Group_6" data-name="Group 6">
            <path id="Path_9" data-name="Path 9" class="cls-3" d="M46.473,34.619a14.862,14.862,0,0,0-.37,13.125A19,19,0,0,0,55.576,56.9c2.487,1.164,5.4,1.852,8.044.953a15.236,15.236,0,0,0,5.292-3.7,33.563,33.563,0,0,0,6.933-8.521c1.694-3.281,2.276-7.3.741-10.638-1.323-2.858-3.969-4.763-6.774-6.033-3.652-1.694-5.716-1.429-9.314,0C55.205,31.232,50.072,28.216,46.473,34.619Z" transform="translate(-43.452 -27.047)"/>
            <g id="Group_5" data-name="Group 5">
              <path id="Path_10" data-name="Path 10" d="M44.043,33.911c-3.546,6.774-1.482,14.766,4.181,19.74,5.292,4.6,12.7,6.827,18.523,2.064,5.557-4.5,12.066-11.537,10.743-19.264-1.058-6.3-8.785-11.008-14.924-9.9-2.064.37-3.916,1.429-6.033,1.746-1.694.265-3.387.212-5.028.476a10.284,10.284,0,0,0-7.462,5.134c-.688,1.111,1.958,1.006,2.434.159,2.117-3.493,4.816-3.6,8.468-3.916,3.122-.265,6.245-2.276,9.314-2.064a13.483,13.483,0,0,1,9.209,5.5c2.382,3.546,1.694,8.2-.265,11.749a33.264,33.264,0,0,1-7.78,9c-4.022,3.546-8.626,2.434-12.86-.318-6.562-4.34-9.95-12.754-6.139-20C47.112,32.853,44.519,33.012,44.043,33.911Z" transform="translate(-42.292 -26.392)"/>
            </g>
          </g>
        </g>
        <g id="Group_9" data-name="Group 9" transform="translate(14.129 8.962)">
          <g id="Group_8" data-name="Group 8">
            <path id="Path_11" data-name="Path 11" d="M61.11,31.935a15.131,15.131,0,0,1,12.172,6.986c.212.37,1.429-.106,1.323-.37A15.838,15.838,0,0,0,61.957,31.3c-.37.053-1.535.635-.847.635Z" transform="translate(-60.897 -31.3)"/>
          </g>
        </g>
      </g>
      <g id="Corn" transform="translate(72.4 32.027)">
        <g id="Group_10" data-name="Group 10" transform="translate(22.638 5.031)">
          <path id="Path_12" data-name="Path 12" class="cls-4" d="M184.134,72.251a75.414,75.414,0,0,1,35.67,7.462,1.713,1.713,0,0,1,0,3.07c-11.908,5.451-24.768,5.822-38.1,6.457" transform="translate(-180.585 -70.977)"/>
          <path id="Path_13" data-name="Path 13" d="M182.243,72.49a77.233,77.233,0,0,1,31.489,5.61c6.721,2.752,2.858,3.758-1.535,5.028a80.137,80.137,0,0,1-10,2.17,206.088,206.088,0,0,1-20.587,1.588c-1.006.053-2.593,2.646-1.8,2.646,9.156-.423,18.417-.741,27.361-2.8,3.175-.741,12.225-2.064,13.5-6.086,2.7-8.574-31.6-10.849-36.623-10.743-1.058-.053-2.646,2.593-1.8,2.593Z" transform="translate(-179.594 -69.893)"/>
        </g>
        <path id="Path_14" data-name="Path 14" d="M234.1,78.694a35.524,35.524,0,0,0,.688,5.239,17.488,17.488,0,0,0,1.111,4.71c.053.106,1.27-.847,1.058-1.217a18.287,18.287,0,0,1-1.164-5.028,37.367,37.367,0,0,1-.582-4.816c.053-.159-1.111.688-1.111,1.111Z" transform="translate(-182.615 -68.473)"/>
        <path id="Path_15" data-name="Path 15" d="M225.264,76.842a37.6,37.6,0,0,1-.106,6.457c-.053,1.694-.212,3.758.635,5.292.423.741,1.641-.318,1.27-1.006-.9-1.694-.529-4.234-.423-6.086a30.058,30.058,0,0,0,.053-5.345c-.159-.9-1.535-.053-1.429.688Z" transform="translate(-178.384 -67.627)"/>
        <path id="Path_16" data-name="Path 16" d="M217.027,75.043c1.323,4.181-1.746,9.262.318,13.284.212.423,1.323-.741,1.164-1.111-2.064-4.022,1.006-9.05-.318-13.284-.159-.37-1.323.688-1.164,1.111Z" transform="translate(-174.381 -66.727)"/>
        <path id="Path_17" data-name="Path 17" d="M208.646,73.743c1.111,4.869-2.593,10.479-.318,15.083.318.688,1.535-.423,1.27-1.006-1.164-2.329-.318-5.5.053-7.991.318-2.223.847-4.6.37-6.827-.265-.847-1.535.106-1.376.741Z" transform="translate(-170.128 -66.169)"/>
        <path id="Path_18" data-name="Path 18" d="M216.938,82.18a140.894,140.894,0,0,1-24.98-1.217c-2.276-.318-9-2.54-9.262,1.958-.106,1.746,2.064,3.44,3.122,4.393,2.593,2.329,3.44,3.652,6.827,2.964,8.2-1.641,16.83-2.8,25.191-3.7.582-.053,1.376-1.482.582-1.376-5.4.582-10.849,1.535-16.3,2.223-2.911.37-9.05,2.646-11.908,1.429a16.178,16.178,0,0,1-4.869-4.234c-2.54-3.916,3.44-2.593,5.716-2.329,2.911.37,5.822.635,8.732.9a122.892,122.892,0,0,0,16.512.37c.635,0,1.429-1.429.635-1.376Z" transform="translate(-158.415 -69.684)"/>
        <path id="Path_19" data-name="Path 19" d="M201.568,73.071c.635,2.646-.053,5.716-.318,8.362-.212,2.223-.794,5.028.053,7.2.106.318,1.27-.741,1.111-1.111-.953-2.434-.212-5.769.053-8.256.212-2.329.794-4.975.212-7.3-.053-.265-1.217.688-1.111,1.111Z" transform="translate(-166.966 -65.814)"/>
        <path id="Path_20" data-name="Path 20" d="M193.954,73.348c.37,1.746-.635,4.075-1.058,5.769a17.324,17.324,0,0,0-1.006,5.134c.053.688,1.27-.318,1.217-.794-.106-1.905.794-4.075,1.217-5.927.37-1.535,1.164-3.6.794-5.239-.106-.476-1.27.529-1.164,1.058Z" transform="translate(-162.739 -65.932)"/>
        <g id="Group_11" data-name="Group 11" transform="translate(6.476)">
          <path id="Path_21" data-name="Path 21" class="cls-2" d="M165.676,77.286C167.9,74.8,185.786,65.8,186.368,62.89c-4.816-.212-24.768,2.752-28.737,6.3-1.958,1.694-4.922,4.234-6.245,6.3-.318.529,4.393,3.546,4.763,3.863" transform="translate(-150.145 -61.561)"/>
          <path id="Path_22" data-name="Path 22" d="M164.955,77.012c5.822-5.451,18.047-7.727,21.487-15.4.265-.529.212-1.217-.529-1.217-12.913-.159-28.155,2.54-36.252,13.337-.318.37-.794,1.058-.529,1.641.847,1.8,3.387,2.964,4.922,4.075,1.006.741,3.122-1.8,2.17-2.487a16.739,16.739,0,0,1-2.646-1.852c-1.429-1.8-1.641-.265-.37-2.646,1.429-2.8,5.5-4.6,8.309-5.5a86.969,86.969,0,0,1,19.105-3.6,13.486,13.486,0,0,1,2.911-.212c.688.106.529-1.006-.476,0-2.223,2.17-5.5,3.7-8.1,5.292-3.493,2.117-7.568,4.022-10.585,6.827-1.27,1.058-1.006,3.281.582,1.746Z" transform="translate(-149.054 -60.388)"/>
        </g>
        <g id="Group_12" data-name="Group 12" transform="translate(0 12.374)">
          <path id="Path_23" data-name="Path 23" class="cls-2" d="M139.1,86.563c2.011.635,4.181-1.111,6.033.053.741.476,1.164-1.111,1.641-.318,2.434,4.181,6.668,9.738,11.114,10.638,4.5.9,20.322,5.557,23.5,2.54-2.276-2.593-16.3-10.585-19.37-11.908-3.387-1.429-4.287-1.217-6.933.953" transform="translate(-137.892 -84.853)"/>
          <path id="Path_24" data-name="Path 24" d="M137.126,86.8c2.117.159,4.181-.37,6.245.053,2.54.529-.37-1.482,2.011.953,3.863,3.969,5.61,7.938,11.326,9.579,6.086,1.746,17.729,6.086,23.5,2.117.476-.318,1.8-1.641,1.111-2.276-4.181-4.181-10.214-7.039-15.348-9.844-4.393-2.382-7.621-4.181-12.014-.9-.9.635-1.8,3.387-.106,2.117,5.716-4.287,21.063,6.933,25.3,11.114.37-.741.741-1.535,1.111-2.276-4.446,3.07-15.083-1.058-19.793-2.17a17.159,17.159,0,0,1-8.362-4.022c-1.746-1.694-4.022-6.721-6.086-7.462-.37-.106-.9.318-1.164.529.265-.212-6.88-.159-6.033-.106-1.006-.106-2.7,2.54-1.694,2.593Z" transform="translate(-136.818 -83.768)"/>
        </g>
      </g>
      <g id="avocado" transform="translate(0 21.455)">
        <g id="Group_13" data-name="Group 13">
          <path id="Path_25" data-name="Path 25" class="cls-2" d="M6.352,71.035A35.853,35.853,0,0,1,2.595,54.47a18.349,18.349,0,0,1,1.376-7.2,9.469,9.469,0,0,1,5.186-5.028,9.807,9.807,0,0,1,8.415,1.535,25.765,25.765,0,0,1,6.033,6.4,35.877,35.877,0,0,1,5.557,10.161c2.064,6.774-.476,13.972-7.25,16.935C15.878,79.926,9.1,76.486,6.352,71.035Z" transform="translate(-1.227 -41.086)"/>
          <path id="Path_26" data-name="Path 26" d="M6.359,70.1c-2.593-5.769-4.5-12.437-3.6-18.841,1.058-7.039,7.2-11.431,14.13-6.192,2.329,1.746,4.075,4.393,5.663,6.774,3.281,5.028,6.192,10.8,4.128,16.935-3.387,10.161-15.454,9.42-20.428,1.111-.423-.741-2.858-.053-2.276.9,3.863,6.51,11.431,9.473,18.364,5.822,8.838-4.657,8.838-14.818,4.393-22.651-3.7-6.562-10.69-16.3-19.529-12.807C-3.909,45.486.272,62.686,3.871,70.624,4.295,71.524,6.729,70.889,6.359,70.1Z" transform="translate(-0.016 -40.411)"/>
        </g>
        <g id="Group_14" data-name="Group 14" transform="translate(7.513 14.093)">
          <path id="Path_27" data-name="Path 27" class="cls-5" d="M23.889,68.259c9.632,1.164,7.2,15.559-1.482,15.136C13.675,82.971,15.21,67.253,23.889,68.259Z" transform="translate(-15.322 -67.592)"/>
          <path id="Path_28" data-name="Path 28" d="M21.985,68.342A6.461,6.461,0,0,1,27.754,74.9c0,3.281-2.17,7.462-5.927,7.3-7.25-.265-6.615-14.4.423-13.813.9.053,2.7-1.164,1.006-1.323a8.154,8.154,0,0,0-8.891,6.986c-.741,4.234,1.217,8.838,5.874,9.42,10.214,1.27,14.236-14.66,3.334-16.353C22.832,66.966,20.662,68.13,21.985,68.342Z" transform="translate(-14.212 -67.04)"/>
        </g>
      </g>
      <g id="water" transform="translate(52.067)">
        <g id="Group_16" data-name="Group 16" transform="translate(0.581 11.927)">
          <path id="Path_29" data-name="Path 29" class="cls-6" d="M130.061,25.129l-3.334,31.6a4.883,4.883,0,0,1-5.081,4.34l-15.771-.794a3.5,3.5,0,0,1-3.281-3.387L101.8,23.7c1.164,1.111,6.986,2.17,14.025,2.54C122.916,26.558,128.791,26.082,130.061,25.129Z" transform="translate(-100.582 -23.016)"/>
          <g id="Group_15" data-name="Group 15">
            <path id="Path_30" data-name="Path 30" d="M127.707,24.68c-.582,5.5-1.164,11.061-1.746,16.565-.37,3.6-.741,7.145-1.111,10.743-.159,1.694-.106,3.969-.794,5.61-1.429,3.387-7.78,1.905-10.532,1.746-1.8-.106-3.6-.159-5.4-.265a9.72,9.72,0,0,1-3.493-.37c-2.276-1.006-1.8-4.234-1.852-6.245-.106-3.44-.159-6.827-.265-10.267-.159-6.51-.318-12.966-.476-19.476-.847.265-1.694.582-2.487.847,1.323,1.058,3.281,1.323,4.869,1.641a74.908,74.908,0,0,0,10.373,1.111,67.32,67.32,0,0,0,9.791-.159,12,12,0,0,0,5.239-1.323c1.482-.953-.794-1.217-1.588-.688-1.27.794-3.7.688-5.134.794a71.615,71.615,0,0,1-8.256-.053c-2.7-.159-5.4-.423-8.1-.847-1.535-.265-3.546-.423-4.763-1.429-.582-.476-2.54-.106-2.487.847.159,6.139.318,12.278.423,18.417.106,3.81.159,7.621.265,11.484.053,2.223-.318,4.869,1.8,6.3,2.223,1.482,6.457.953,8.944,1.058,3.122.159,6.4.529,9.526.476a6.491,6.491,0,0,0,6.615-5.874c.37-3.017.635-5.98.953-9,.794-7.3,1.535-14.607,2.329-21.91C130.406,23.357,127.813,23.886,127.707,24.68Z" transform="translate(-99.498 -22.408)"/>
          </g>
        </g>
        <g id="Group_18" data-name="Group 18" transform="translate(0.105 2.1)">
          <path id="Path_31" data-name="Path 31" class="cls-7" d="M130.89,6.823,129.778,17.3c-1.058-1.111-6.933-2.276-14.078-2.593-7.2-.37-13.178.159-14.289,1.217L101.2,5.5c2.17,1.006,7.886,1.905,14.607,2.223C122.951,8.04,128.985,7.67,130.89,6.823Z" transform="translate(-99.823 -4.622)"/>
          <g id="Group_17" data-name="Group 17">
            <path id="Path_32" data-name="Path 32" d="M128.342,6.148,127.23,16.627c.794-.265,1.535-.582,2.329-.847-1.27-1.111-3.334-1.376-4.975-1.694a65.379,65.379,0,0,0-10.69-1.111,67.221,67.221,0,0,0-9.791.212c-1.588.212-3.493.37-4.816,1.376.741.159,1.429.318,2.17.476-.053-3.493-.159-6.933-.212-10.426l-2.064.953c4.975,2.064,11.114,2.17,16.406,2.382,4.657.159,10.161.635,14.607-1.111,1.641-.635.212-2.011-1.164-1.482a18.011,18.011,0,0,1-5.292.741,90.107,90.107,0,0,1-9.262-.053c-4.446-.265-9.632-.37-13.813-2.117-.582-.265-2.117.106-2.064.953.053,3.493.159,6.933.212,10.426,0,1.058,1.535.953,2.17.476,1.164-.847,3.652-.741,5.028-.847a85.117,85.117,0,0,1,9,.053,71.948,71.948,0,0,1,7.568.847c1.482.265,3.7.476,4.922,1.535a1.665,1.665,0,0,0,2.329-.847l1.111-10.479C131.146,4.613,128.5,4.984,128.342,6.148Z" transform="translate(-98.597 -3.841)"/>
          </g>
        </g>
        <g id="Group_20" data-name="Group 20" transform="translate(0.212 1.761)">
          <g id="Group_19" data-name="Group 19">
            <path id="Path_33" data-name="Path 33" d="M128.543,5.158c0,.212-.053.423-.053.688a10.163,10.163,0,0,1,.794-.741,17.768,17.768,0,0,1-5.292.741,90.106,90.106,0,0,1-9.262-.053,73.353,73.353,0,0,1-8.362-.847c-.635-.106-4.922-.794-4.922-1.058-.582.318-1.217.635-1.8.953,9.95.318,19.846.688,29.8,1.006,1.111.053,2.752-1.588.953-1.641-9.95-.318-19.846-.688-29.8-1.006-.476,0-1.8.265-1.8.953v.37a.537.537,0,0,0,.265.529c4.922,2.064,10.9,2.223,16.142,2.434,4.763.212,10.585.688,15.083-1.111.318-.106.741-.423.794-.741,0-.212.053-.423.053-.688C131.295,3.729,128.649,4.206,128.543,5.158Z" transform="translate(-98.8 -3.2)"/>
          </g>
        </g>
        <g id="Group_22" data-name="Group 22">
          <path id="Path_34" data-name="Path 34" class="cls-7" d="M130.72,4.1c0,.212-.265.423-.635.582-1.905.847-7.991,1.217-15.083.9-6.721-.318-12.437-1.217-14.607-2.223-.582-.265-.953-.529-.9-.794.053-1.27,7.092-1.905,15.771-1.482C123.84,1.454,130.826,2.83,130.72,4.1Z" transform="translate(-98.913 -0.381)"/>
          <g id="Group_21" data-name="Group 21">
            <path id="Path_35" data-name="Path 35" d="M129.624,3.539c-.741,1.27-5.081,1.111-6.351,1.164a86.051,86.051,0,0,1-9.05-.106,75.853,75.853,0,0,1-9.1-.953c-.794-.106-5.874-.9-4.657-2.17.9-.953,5.292-.635,6.51-.688,3.175-.106,6.4,0,9.579.212A75.434,75.434,0,0,1,125.02,2c.9.159,4.393.529,4.551,1.694.106.476,1.376.159,1.323-.37-.212-1.376-3.493-1.8-4.446-1.958A75.556,75.556,0,0,0,114.965.046a67.325,67.325,0,0,0-12.225.212c-.9.106-3.863.265-4.287,1.429-1.058,2.8,14.025,3.6,15.295,3.652a74.5,74.5,0,0,0,11.908-.106c1.482-.159,4.287-.212,5.134-1.694C131.159,3.009,129.836,3.115,129.624,3.539Z" transform="translate(-98.4 0.128)"/>
          </g>
        </g>
        <g id="Group_23" data-name="Group 23" transform="translate(3.811 11.685)">
          <path id="Path_36" data-name="Path 36" class="cls-8" d="M129.892,24.253l-.053.635c-1.111.794-6.139,1.164-12.172.847s-11.061-1.217-12.066-2.117v-.635c.953-.794,6.086-1.217,12.278-.953C123.964,22.453,128.992,23.353,129.892,24.253Z" transform="translate(-105.6 -21.951)"/>
        </g>
        <g id="Group_25" data-name="Group 25" transform="translate(1.018 12.967)">
          <path id="Path_37" data-name="Path 37" class="cls-7" d="M101.546,25.1l.053.741a.547.547,0,0,1-.212-.423C101.335,25.312,101.44,25.206,101.546,25.1Z" transform="translate(-100.817 -24.716)"/>
          <g id="Group_24" data-name="Group 24">
            <path id="Path_38" data-name="Path 38" d="M100.416,24.917a3.255,3.255,0,0,0,.053.741c.423-.159.847-.265,1.27-.423-.106-.106-.265-.265-.106-.423s.159-.37-.106-.423a1.086,1.086,0,0,0-.9.265.7.7,0,0,0-.053,1.111c.265.265,1.27,0,1.27-.423a3.255,3.255,0,0,0-.053-.741C101.687,24.176,100.363,24.441,100.416,24.917Z" transform="translate(-100.322 -24.375)"/>
          </g>
        </g>
        <g id="Group_27" data-name="Group 27" transform="translate(29.424 14.354)">
          <path id="Path_39" data-name="Path 39" class="cls-7" d="M155.365,28.17c0,.159-.106.265-.265.423l.106-.794A.48.48,0,0,1,155.365,28.17Z" transform="translate(-154.516 -27.374)"/>
          <g id="Group_26" data-name="Group 26">
            <path id="Path_40" data-name="Path 40" d="M154.21,27.9a.275.275,0,0,1-.106.212h1.164c.053-.265.053-.529.106-.794l-1.27.318a.6.6,0,0,1,.159.318c0,.37,1.323.106,1.323-.37a.951.951,0,0,0-.212-.476c-.212-.265-1.217,0-1.27.318-.053.265-.053.529-.106.794-.053.476,1.006.106,1.164,0,.159-.159.37-.318.37-.582C155.533,27.262,154.263,27.474,154.21,27.9Z" transform="translate(-153.996 -26.995)"/>
          </g>
        </g>
      </g>
      <g id="Grapes" transform="translate(10.953 22.08)">
        <g id="Group_29" data-name="Group 29" transform="translate(34.493)">
          <g id="Group_28" data-name="Group 28">
            <path id="Path_41" data-name="Path 41" class="cls-9" d="M88.011,57.95c3.281-2.911,8.944-.053,12.86-1.746,2.117-.9,3.334-2.8,4.657-4.657,2.011-2.911,4.075-5.769,6.086-8.679.953-1.323-1.482-1.694-2.17-.741-1.852,2.646-3.7,5.239-5.5,7.886-1.8,2.593-3.175,5.028-6.668,5.081-3.81.053-7.833-1.058-10.955,1.746-1.323,1.164.741,2.011,1.694,1.111Z" transform="translate(-85.887 -41.593)"/>
          </g>
        </g>
        <g id="Group_31" data-name="Group 31" transform="translate(40.813 12.517)">
          <g id="Group_30" data-name="Group 30">
            <path id="Path_42" data-name="Path 42" class="cls-9" d="M100.408,78.769A60.013,60.013,0,0,1,108.24,65.8c.688-.847-1.905-.635-2.382,0a61.535,61.535,0,0,0-7.991,13.284c-.37.741,2.17.476,2.54-.318Z" transform="translate(-97.83 -65.245)"/>
          </g>
        </g>
        <g id="Group_33" data-name="Group 33" transform="translate(7.198 24.905)">
          <path id="Path_43" data-name="Path 43" class="cls-10" d="M44.3,91.167c3.334,4.234-3.281,9-6.562,5.4C34.514,92.966,41.288,87.356,44.3,91.167Z" transform="translate(-35.526 -89.236)"/>
          <g id="Group_32" data-name="Group 32">
            <path id="Path_44" data-name="Path 44" d="M41.874,91.112a3.413,3.413,0,0,1-.423,4.763,2.659,2.659,0,0,1-4.022-.794c-1.694-2.7,2.064-6.774,4.446-3.969.582.688,3.07-.265,2.434-1.006-3.44-4.075-12.543,1.217-9.314,5.98,3.44,5.028,13.284-.529,9.314-5.98C43.779,89.418,41.292,90.265,41.874,91.112Z" transform="translate(-34.312 -88.652)"/>
          </g>
        </g>
        <g id="Group_35" data-name="Group 35" transform="translate(18.629 13.632)">
          <path id="Path_45" data-name="Path 45" class="cls-10" d="M65.887,69.941c3.334,4.234-3.281,9-6.562,5.4C56.044,71.688,62.871,66.078,65.887,69.941Z" transform="translate(-57.109 -67.957)"/>
          <g id="Group_34" data-name="Group 34">
            <path id="Path_46" data-name="Path 46" d="M63.474,69.812a3.413,3.413,0,0,1-.423,4.763,2.659,2.659,0,0,1-4.022-.794c-1.694-2.646,2.064-6.774,4.446-3.969.582.688,3.07-.265,2.434-1.006-3.44-4.075-12.543,1.217-9.314,5.98,3.44,5.028,13.284-.529,9.314-5.98C65.379,68.118,62.839,69.018,63.474,69.812Z" transform="translate(-55.912 -67.352)"/>
          </g>
        </g>
        <g id="Group_37" data-name="Group 37" transform="translate(15.825 26.57)">
          <path id="Path_47" data-name="Path 47" class="cls-10" d="M61.333,95.543c1.588,5.186-6.351,7.145-8.044,2.646C51.542,93.585,59.957,90.886,61.333,95.543Z" transform="translate(-51.762 -92.419)"/>
          <g id="Group_36" data-name="Group 36" transform="translate(0)">
            <path id="Path_48" data-name="Path 48" d="M58.916,95.291c.423,1.535.053,3.44-1.694,3.969a3.232,3.232,0,0,1-3.863-2.17c-1.164-3.6,4.287-5.4,5.557-1.8.318.9,2.911.159,2.593-.688-1.852-5.4-12.49-2.276-10.69,3.175,1.852,5.716,12.278,2.8,10.69-3.175C61.3,93.7,58.651,94.392,58.916,95.291Z" transform="translate(-50.614 -91.797)"/>
          </g>
        </g>
        <g id="Group_39" data-name="Group 39" transform="translate(23.127 20.724)">
          <path id="Path_49" data-name="Path 49" class="cls-10" d="M74.387,83.361c3.334,4.234-3.281,9-6.562,5.4C64.544,85.107,71.371,79.55,74.387,83.361Z" transform="translate(-65.609 -81.377)"/>
          <g id="Group_38" data-name="Group 38">
            <path id="Path_50" data-name="Path 50" d="M71.974,83.212a3.413,3.413,0,0,1-.423,4.763,2.659,2.659,0,0,1-4.022-.794c-1.694-2.646,2.064-6.774,4.446-3.969.582.688,3.07-.265,2.434-1.006-3.44-4.075-12.543,1.217-9.314,5.98,3.44,5.028,13.284-.529,9.314-5.98C73.879,81.518,71.339,82.418,71.974,83.212Z" transform="translate(-64.412 -80.752)"/>
          </g>
        </g>
        <g id="Group_41" data-name="Group 41" transform="translate(22.704 29.403)">
          <path id="Path_51" data-name="Path 51" class="cls-10" d="M73.587,99.761c3.334,4.234-3.281,9-6.562,5.4C63.744,101.507,70.571,95.95,73.587,99.761Z" transform="translate(-64.809 -97.777)"/>
          <g id="Group_40" data-name="Group 40">
            <path id="Path_52" data-name="Path 52" d="M71.174,99.612a3.413,3.413,0,0,1-.423,4.763,2.659,2.659,0,0,1-4.022-.794c-1.694-2.646,2.064-6.774,4.446-3.969.582.688,3.07-.265,2.434-1.006-3.44-4.075-12.543,1.217-9.314,5.98,3.44,5.028,13.284-.529,9.314-5.98C73.079,97.918,70.592,98.818,71.174,99.612Z" transform="translate(-63.612 -97.152)"/>
          </g>
        </g>
        <g id="Group_43" data-name="Group 43" transform="translate(32.177 29.139)">
          <path id="Path_53" data-name="Path 53" class="cls-10" d="M91.487,99.241c3.334,4.234-3.281,9-6.562,5.4C81.644,100.988,88.471,95.378,91.487,99.241Z" transform="translate(-82.709 -97.257)"/>
          <g id="Group_42" data-name="Group 42">
            <path id="Path_54" data-name="Path 54" d="M89.074,99.112a3.413,3.413,0,0,1-.423,4.763,2.659,2.659,0,0,1-4.022-.794c-1.694-2.646,2.064-6.774,4.446-3.969.582.688,3.07-.265,2.434-1.006-3.44-4.075-12.543,1.217-9.314,5.98,3.44,5.028,13.284-.529,9.314-5.98C90.979,97.418,88.492,98.265,89.074,99.112Z" transform="translate(-81.512 -96.652)"/>
          </g>
        </g>
        <g id="Group_45" data-name="Group 45" transform="translate(16.321 34.937)">
          <path id="Path_55" data-name="Path 55" class="cls-10" d="M61.376,110.06c3.546,4.075-2.8,9.156-6.245,5.716S58.2,106.355,61.376,110.06Z" transform="translate(-52.777 -108.212)"/>
          <g id="Group_44" data-name="Group 44">
            <path id="Path_56" data-name="Path 56" d="M58.934,109.932a3.354,3.354,0,0,1-.159,4.763,2.555,2.555,0,0,1-4.022-.476c-1.8-2.434,1.694-6.933,4.181-4.287.582.635,3.07-.318,2.434-1.006-3.652-3.916-12.543,1.694-9,6.351,3.652,4.816,13.337-1.111,9-6.351C60.839,108.239,58.3,109.192,58.934,109.932Z" transform="translate(-51.552 -107.608)"/>
          </g>
        </g>
        <g id="Group_47" data-name="Group 47" transform="translate(8.891 31.52)">
          <path id="Path_57" data-name="Path 57" class="cls-10" d="M47.487,103.741c3.334,4.234-3.281,9-6.562,5.4C37.644,105.488,44.471,99.878,47.487,103.741Z" transform="translate(-38.709 -101.757)"/>
          <g id="Group_46" data-name="Group 46">
            <path id="Path_58" data-name="Path 58" d="M45.074,103.612a3.413,3.413,0,0,1-.423,4.763,2.659,2.659,0,0,1-4.022-.794c-1.694-2.7,2.064-6.774,4.446-3.969.582.688,3.07-.265,2.434-1.006-3.44-4.075-12.543,1.217-9.314,5.98,3.44,5.028,13.284-.529,9.314-5.98C46.979,101.918,44.492,102.765,45.074,103.612Z" transform="translate(-37.512 -101.152)"/>
          </g>
        </g>
        <g id="Group_49" data-name="Group 49" transform="translate(27.89 13.632)">
          <path id="Path_59" data-name="Path 59" class="cls-10" d="M83.387,69.961c3.334,4.234-3.281,9-6.562,5.4C73.544,71.707,80.371,66.15,83.387,69.961Z" transform="translate(-74.609 -67.977)"/>
          <g id="Group_48" data-name="Group 48">
            <path id="Path_60" data-name="Path 60" d="M80.974,69.812a3.413,3.413,0,0,1-.423,4.763,2.659,2.659,0,0,1-4.022-.794c-1.694-2.646,2.064-6.774,4.446-3.969.582.688,3.07-.265,2.434-1.006-3.44-4.075-12.543,1.217-9.314,5.98,3.44,5.028,13.284-.529,9.314-5.98C82.879,68.118,80.339,69.018,80.974,69.812Z" transform="translate(-73.412 -67.352)"/>
          </g>
        </g>
        <g id="Group_51" data-name="Group 51" transform="translate(14.183 19.084)">
          <path id="Path_61" data-name="Path 61" class="cls-10" d="M57.487,80.261c3.334,4.234-3.281,9-6.562,5.4C47.644,82.007,54.471,76.45,57.487,80.261Z" transform="translate(-48.709 -78.277)"/>
          <g id="Group_50" data-name="Group 50">
            <path id="Path_62" data-name="Path 62" d="M55.074,80.112a3.413,3.413,0,0,1-.423,4.763,2.659,2.659,0,0,1-4.022-.794c-1.694-2.646,2.064-6.774,4.446-3.969.582.688,3.07-.265,2.434-1.006-3.44-4.075-12.543,1.217-9.314,5.98,3.44,5.028,13.284-.529,9.314-5.98C56.979,78.418,54.492,79.318,55.074,80.112Z" transform="translate(-47.512 -77.652)"/>
          </g>
        </g>
        <g id="Group_53" data-name="Group 53" transform="translate(24.536 6.541)">
          <path id="Path_63" data-name="Path 63" class="cls-10" d="M77.087,56.467c3.334,4.234-3.281,9-6.562,5.4S74.071,52.656,77.087,56.467Z" transform="translate(-68.289 -54.536)"/>
          <g id="Group_52" data-name="Group 52">
            <path id="Path_64" data-name="Path 64" d="M74.656,56.412a3.413,3.413,0,0,1-.423,4.763,2.659,2.659,0,0,1-4.022-.794c-1.694-2.7,2.064-6.774,4.446-3.969.582.688,3.07-.265,2.434-1.006-3.493-4.075-12.6,1.217-9.314,5.98,3.44,5.028,13.284-.529,9.314-5.98C76.561,54.718,74.021,55.565,74.656,56.412Z" transform="translate(-67.075 -53.952)"/>
          </g>
        </g>
        <g id="Group_55" data-name="Group 55" transform="translate(36.094 15.908)">
          <path id="Path_65" data-name="Path 65" class="cls-10" d="M98.887,74.241c3.334,4.234-3.281,9-6.562,5.4C89.044,75.988,95.871,70.378,98.887,74.241Z" transform="translate(-90.109 -72.257)"/>
          <g id="Group_54" data-name="Group 54">
            <path id="Path_66" data-name="Path 66" d="M96.474,74.112a3.413,3.413,0,0,1-.423,4.763,2.659,2.659,0,0,1-4.022-.794c-1.694-2.646,2.064-6.774,4.446-3.969.582.688,3.07-.265,2.434-1.006-3.44-4.075-12.543,1.217-9.314,5.98,3.44,5.028,13.284-.529,9.314-5.98C98.379,72.418,95.892,73.318,96.474,74.112Z" transform="translate(-88.912 -71.652)"/>
          </g>
        </g>
        <g id="Group_57" data-name="Group 57" transform="translate(34.03 7.546)">
          <path id="Path_67" data-name="Path 67" class="cls-10" d="M94.987,58.367c3.334,4.234-3.281,9-6.562,5.4S91.971,54.556,94.987,58.367Z" transform="translate(-86.209 -56.436)"/>
          <g id="Group_56" data-name="Group 56">
            <path id="Path_68" data-name="Path 68" d="M92.574,58.312a3.413,3.413,0,0,1-.423,4.763,2.659,2.659,0,0,1-4.022-.794c-1.694-2.7,2.064-6.774,4.446-3.969.582.688,3.07-.265,2.434-1.006-3.44-4.075-12.543,1.217-9.314,5.98,3.44,5.028,13.284-.529,9.314-5.98C94.479,56.618,91.939,57.465,92.574,58.312Z" transform="translate(-85.012 -55.852)"/>
          </g>
        </g>
        <g id="Group_59" data-name="Group 59" transform="translate(29.637 22.047)">
          <path id="Path_69" data-name="Path 69" class="cls-10" d="M86.609,85.767c3.334,4.234-3.281,9-6.562,5.4C76.818,87.566,83.645,81.956,86.609,85.767Z" transform="translate(-77.883 -83.836)"/>
          <g id="Group_58" data-name="Group 58">
            <path id="Path_70" data-name="Path 70" d="M84.274,85.712a3.413,3.413,0,0,1-.423,4.763,2.659,2.659,0,0,1-4.022-.794c-1.694-2.7,2.011-6.827,4.446-3.969.582.688,3.07-.265,2.434-1.006-3.44-4.075-12.543,1.217-9.314,5.98,3.44,5.028,13.284-.529,9.314-5.98C86.179,83.965,83.639,84.865,84.274,85.712Z" transform="translate(-76.712 -83.252)"/>
          </g>
        </g>
        <g id="Group_61" data-name="Group 61" transform="translate(0 29.88)">
          <path id="Path_71" data-name="Path 71" class="cls-10" d="M30.7,100.641c3.334,4.234-3.281,9-6.562,5.4C20.914,102.388,27.688,96.778,30.7,100.641Z" transform="translate(-21.926 -98.657)"/>
          <g id="Group_60" data-name="Group 60">
            <path id="Path_72" data-name="Path 72" d="M28.274,100.512a3.413,3.413,0,0,1-.423,4.763,2.659,2.659,0,0,1-4.022-.794c-1.694-2.7,2.064-6.774,4.446-3.969.582.688,3.07-.265,2.434-1.006-3.44-4.075-12.543,1.217-9.314,5.98,3.44,5.028,13.284-.529,9.314-5.98C30.179,98.818,27.692,99.665,28.274,100.512Z" transform="translate(-20.712 -98.052)"/>
          </g>
        </g>
        <g id="Group_63" data-name="Group 63" transform="translate(38.793 23.423)">
          <path id="Path_73" data-name="Path 73" class="cls-10" d="M103.987,88.367c3.334,4.234-3.281,9-6.562,5.4S100.971,84.556,103.987,88.367Z" transform="translate(-95.209 -86.436)"/>
          <g id="Group_62" data-name="Group 62">
            <path id="Path_74" data-name="Path 74" d="M101.574,88.312a3.413,3.413,0,0,1-.423,4.763,2.659,2.659,0,0,1-4.022-.794c-1.694-2.7,2.064-6.774,4.446-3.969.582.688,3.07-.265,2.434-1.006-3.44-4.075-12.543,1.217-9.314,5.98,3.44,5.028,13.284-.529,9.314-5.98C103.479,86.618,100.992,87.465,101.574,88.312Z" transform="translate(-94.012 -85.852)"/>
          </g>
        </g>
      </g>
      <g id="Chicken" transform="translate(29.497 38.704)">
        <g id="Group_65" data-name="Group 65" transform="translate(0 16.987)">
          <path id="Path_75" data-name="Path 75" class="cls-7" d="M76.565,112.245a61.659,61.659,0,0,0-8.679,1.8,1.761,1.761,0,0,0-1.006.582,2.577,2.577,0,0,0-.106,1.111c-.053,1.852-1.8,3.122-3.387,3.969a2.588,2.588,0,0,1-1.217.423c-1.006,0-1.694-1.006-1.958-1.958A4.37,4.37,0,0,1,60.318,115a2.7,2.7,0,0,1,2.593-1.588,3.955,3.955,0,0,1-3.6-1.111,4.038,4.038,0,0,1-1.006-3.652,2.314,2.314,0,0,1,.688-1.27c.9-.847,2.382-.582,3.493-.053a12,12,0,0,0,3.387,1.482,6.928,6.928,0,0,0,2.911-.529c2.223-.741,4.5-1.482,6.721-2.276" transform="translate(-56.905 -105.525)"/>
          <g id="Group_64" data-name="Group 64">
            <path id="Path_76" data-name="Path 76" d="M75.623,111.187a64.514,64.514,0,0,0-7.092,1.376c-1.217.318-3.07.529-3.863,1.588a2.04,2.04,0,0,0-.318.953c-.318,1.482-.635,2.858-2.276,3.546-1.058.423-1.27-.106-1.694-1.217-.265-.794-.529-3.7.9-3.758.265-.423.476-.847.741-1.323a3.235,3.235,0,0,1-3.44-2.487c-.423-1.641.159-2.8,2.117-2.17,1.27.37,2.17,1.27,3.546,1.376,3.44.265,7.515-1.958,10.638-2.964,1.746-.582.159-1.27-1.006-.9-1.746.582-3.546,1.164-5.292,1.8a6.849,6.849,0,0,1-4.234.476,13.986,13.986,0,0,1-1.958-1.058,5.446,5.446,0,0,0-5.028.159,3.765,3.765,0,0,0-1.006,5.186c1.111,1.852,3.175,2.223,5.186,2.011.794-.106,2.382-1.323.741-1.323-2.064.053-4.181,1.006-4.657,3.175-.476,2.011.529,4.816,2.911,4.869a8.211,8.211,0,0,0,5.663-3.228c.794-1.111.476-2.382,1.694-3.228a8.389,8.389,0,0,1,2.858-.688c1.482-.318,2.964-.582,4.5-.794,1.111-.265,2.17-1.641.37-1.376Z" transform="translate(-55.752 -105.102)"/>
          </g>
        </g>
        <g id="Group_67" data-name="Group 67" transform="translate(15.682)">
          <path id="Path_77" data-name="Path 77" class="cls-9" d="M113.455,99.355c-5.61-.741-11.114-3.758-16.618-2.911-2.382.37-5.186,1.376-7.039-.37A7.865,7.865,0,0,1,87.787,91.1a6.782,6.782,0,0,1,2.8-4.763c1.694-1.217,4.657-.476,6.51-1.27,5.028-2.117,8.15-7.356,13.072-9.738,6.933-3.387,18.523.582,20.587,9.156C133.195,94.433,121.234,100.36,113.455,99.355Z" transform="translate(-86.508 -73.53)"/>
          <g id="Group_66" data-name="Group 66">
            <path id="Path_78" data-name="Path 78" d="M113.176,98.193c-4.022-.635-7.833-2.223-11.8-2.8a18.649,18.649,0,0,0-4.551-.159c-2.117.212-5.081,1.482-6.88-.106-3.228-2.911-2.064-9.1,2.593-9.42a13.881,13.881,0,0,0,7.25-2.487c2.911-2.011,5.186-4.763,8.044-6.827A11.78,11.78,0,0,1,118.1,74.8c5.822,1.535,11.378,6.668,10.585,13.125-.9,7.039-9.1,11.008-15.506,10.267-.688-.053-3.017,1.111-1.641,1.217,6.192.688,13.6-1.746,17.465-6.774,4.71-6.086,1.429-13.866-4.763-17.359a17.43,17.43,0,0,0-19.74,1.746c-1.746,1.429-3.281,3.017-4.975,4.446a15.363,15.363,0,0,1-3.44,2.382,11.17,11.17,0,0,1-3.758.582c-3.44.423-6.721,2.752-6.933,6.562-.212,4.287,3.281,6.615,7.145,6.086,3.546-.476,6.457-.741,10,.159,3.017.741,5.927,1.746,9,2.223C112.224,99.569,114.552,98.405,113.176,98.193Z" transform="translate(-85.383 -73.004)"/>
          </g>
        </g>
      </g>
      <g id="Carrot" transform="translate(56.09 49.442)">
        <g id="Group_71" data-name="Group 71">
          <g id="Group_69" data-name="Group 69">
            <path id="Path_79" data-name="Path 79" class="cls-2" d="M142.954,102.395a17.093,17.093,0,0,1-2.329,0c-.37.318-.741.635-.9.635-6.139,3.863-7.25,4.763-10.426,5.345-2.064.37-1.164-.635-.106-1.376,1.958-1.323,2.752-2.223,4.816-3.228a33.608,33.608,0,0,0-10.055,2.858c-.635.318-1.27.582-1.905.9-1.8.847-.265-1.376.529-1.746.635-.318,1.323-.582,1.958-.9,1.217-.582,2.487-1.164,3.7-1.746a71.1,71.1,0,0,0-14.977,4.287c-1.429.582.37-1.641.847-1.852l.318-.159c1.746-.9,3.44-1.746,5.186-2.54-1.376.106-2.752.265-4.128.423l-3.81.476c-1.006.159.9-2.011,1.694-2.117l3.81-.476a1.465,1.465,0,0,1,.476-.053c-3.44-.265-6.933-.582-10.426-.953-.847-.106,1.376-2.064,1.852-2.117a54.829,54.829,0,0,1,13.813.318l.37-.053c-1.641-.635-3.281-1.27-4.922-2.011-.847-.423,1.323-2.276,2.064-2.117a109.311,109.311,0,0,1,16.406,4.6l4.446.159c.741.053.265.688-.318,1.27,1.217.106,2.382.106,3.652.106C145.706,100.225,143.747,102.342,142.954,102.395Z" transform="translate(-106.49 -93.713)"/>
            <g id="Group_68" data-name="Group 68">
              <path id="Path_80" data-name="Path 80" d="M142.517,101.5c-2.117.053-2.434,0-4.128,1.111-1.8,1.164-3.652,2.382-5.557,3.44a11.857,11.857,0,0,1-3.281,1.323c-.212.053-1.006.212-1.111.053a14.493,14.493,0,0,1,1.8-1.323,31.91,31.91,0,0,1,3.546-2.382c.529-.265.423-.9-.212-.794a38.038,38.038,0,0,0-8.679,2.223c-1.006.423-5.028,1.905-1.852.265,1.641-.847,3.334-1.535,5.028-2.329.741-.318.212-.9-.37-.794a75.646,75.646,0,0,0-12.225,3.228c-.953.37-3.387,1.746-1.694.212,1.429-1.323,3.969-2.117,5.716-2.911.582-.265.423-.9-.212-.794-1.376.159-2.752.265-4.128.423a13.57,13.57,0,0,1-3.122.476q-.714.318.159-.476a2.057,2.057,0,0,1,1.694-.847c1.111-.212,2.223-.265,3.334-.423.476-.053,1.164-.847.318-.9q-3.652-.238-7.3-.635c-.847-.106-2.7.159-2.276-.9.37-.9,1.958-.794,2.7-.9a41.883,41.883,0,0,1,7.727.106,25.626,25.626,0,0,0,4.446.37c.423-.053,1.111-.635.423-.9a14.694,14.694,0,0,1-3.281-1.323c-1.588-1.058-1.27-1.852.688-1.8,2.223.053,4.71,1.058,6.827,1.641,2.276.635,4.5,1.323,6.721,2.064a11.772,11.772,0,0,0,2.911.741c.212,0,3.652-.053,2.964.794-.265.265-.053.582.318.635a12.217,12.217,0,0,1,2.8.106h.688a3.2,3.2,0,0,1-1.376,1.27c-.794.212-.582,1.058.212.847.741-.212,2.646-1.323,2.54-2.329-.159-1.429-3.44-.741-4.393-.794l.318.635c.529-.635.529-.476.741-1.164a.332.332,0,0,0-.106-.423c-1.111-.635-2.54-.318-3.758-.423-2.382-.212-4.657-1.217-6.88-1.905-1.905-.582-3.863-1.111-5.822-1.588-1.482-.37-3.6-1.164-5.134-1.111-.9,0-2.911.953-3.017,2.064-.159,1.694,4.181,2.54,5.292,2.964a6.89,6.89,0,0,0,.423-.9c-2.276.212-4.816-.476-7.092-.582a38.983,38.983,0,0,0-6.086.159c-1.376.159-3.6,1.006-3.758,2.646a.377.377,0,0,0,.159.318c1.111.635,2.858.423,4.075.582,2.276.212,4.5.423,6.774.582.106-.318.212-.582.318-.9-1.746.265-3.916.053-5.4,1.058-.582.423-1.746,1.429-1.482,2.223a.4.4,0,0,0,.423.265,11.216,11.216,0,0,0,3.228-.37c1.694-.212,3.387-.37,5.081-.529-.053-.265-.159-.529-.212-.794-1.588.741-7.25,2.329-7.25,4.975,0,.212.106.265.265.37a1.328,1.328,0,0,0,1.006-.053c1.694-.318,3.44-1.323,5.081-1.852a79.418,79.418,0,0,1,9.9-2.434c-.106-.265-.265-.529-.37-.794-.582.265-8.891,3.228-7.3,5.186.635.741,2.593-.529,3.07-.741a37.766,37.766,0,0,1,10.214-2.964c-.053-.265-.159-.529-.212-.794a36.035,36.035,0,0,0-4.181,2.8c-.423.318-1.852,1.058-2.011,1.694-.37,1.482,1.694.953,2.54.794,4.71-1.006,8.1-5.716,12.807-5.822C143.1,102.4,143.417,101.5,142.517,101.5Z" transform="translate(-106 -93.295)"/>
            </g>
          </g>
          <g id="Group_70" data-name="Group 70" transform="translate(30.883 1.34)">
            <path id="Path_81" data-name="Path 81" class="cls-11" d="M210.6,107.586c-13.019-5.769-26.832-11.22-41.015-9.791-1.111.106-2.382.37-2.911,1.376a3.345,3.345,0,0,0-.212,1.905c.212,2.593.688,5.557,2.964,6.827a8.165,8.165,0,0,0,3.916.635q21.99-.079,43.873-1.217" transform="translate(-165.329 -96.645)"/>
            <path id="Path_82" data-name="Path 82" d="M208.622,107.668c-4.869-2.117-39.216-16.935-42.021-8.044-3.07,9.9,15.718,7.25,20.27,7.145,10.055-.212,20.164-.529,30.219-1.058.741-.053-1.058,1.694-1.641,1.694q-18.655.953-37.311,1.164c-3.863.053-9.844,1.376-12.49-2.382-1.164-1.641-1.8-5.822-.794-7.515,2.064-3.652,8.626-2.8,11.8-2.646,11.908.582,23.18,5.239,33.977,9.95.423.159-1.429,1.958-2.011,1.694Z" transform="translate(-164.354 -95.827)"/>
          </g>
        </g>
        <path id="Path_83" data-name="Path 83" d="M231.092,113.419a2.927,2.927,0,0,1-.476,1.588,1.72,1.72,0,0,1-1.694.847c-.635-.159-.635-.794-.37-1.27a.787.787,0,0,0,.106-.476c.053-1.164,2.487-2.223,2.434-.688Z" transform="translate(-163.615 -102.409)"/>
        <path id="Path_84" data-name="Path 84" d="M219.492,111.892c-.106.688-.212,1.323-.318,2.011a2.037,2.037,0,0,1-1.111,1.27c-.159.053-1.217.582-1.164.053.106-.688.212-1.323.318-2.011a2.037,2.037,0,0,1,1.111-1.27c.159-.053,1.27-.582,1.164-.053Z" transform="translate(-158.207 -101.94)"/>
        <path id="Path_85" data-name="Path 85" d="M210.084,110.338c-.37.953-.741,1.905-1.164,2.858-.212.582-1.482.794-1.164,0,.37-.953.741-1.905,1.164-2.858.212-.582,1.482-.794,1.164,0Z" transform="translate(-153.879 -101.074)"/>
        <path id="Path_86" data-name="Path 86" d="M197.3,112.514a4.9,4.9,0,0,0-.529,1.958c-.053.582-.688,1.058-1.111,1.27-.159.106-1.164.582-1.164.053a6.352,6.352,0,0,1,.794-2.752,2.631,2.631,0,0,1,1.535-1.164c.529-.106.741.159.476.635Z" transform="translate(-147.663 -102.033)"/>
        <path id="Path_87" data-name="Path 87" d="M184.844,108.294c-.106,1.535-.265,3.122-.37,4.657-.053.529-.741,1.006-1.164,1.27-.159.106-1.164.582-1.111.106.106-1.535.265-3.122.37-4.657.053-.529.741-1.006,1.164-1.27.106-.106,1.111-.635,1.111-.106Z" transform="translate(-141.871 -100.247)"/>
      </g>
    </g>
    <text id="You_Are_What_You_Eat" data-name="You Are What You Eat" class="cls-12" transform="translate(-0.202 82.459)"><tspan x="0" y="0">You Are What You Eat</tspan></text>
  </g>
</svg>
